<?xml version="1.0" standalone="no"?>
<!DOCTYPE svg PUBLIC "-//W3C//DTD SVG 20010904//EN"
 "http://www.w3.org/TR/2001/REC-SVG-20010904/DTD/svg10.dtd">
<svg version="1.0" xmlns="http://www.w3.org/2000/svg"
 width="512.000000pt" height="512.000000pt" viewBox="0 0 512.000000 512.000000"
 preserveAspectRatio="xMidYMid meet">
<metadata>
Created by potrace 1.14, written by Peter Selinger 2001-2017
</metadata>
<g transform="translate(0.000000,512.000000) scale(0.100000,-0.100000)"
fill="#000000" stroke="none">
<path d="M770 3985 c0 -3 11 -22 24 -43 29 -46 100 -104 249 -205 45 -29 52
-36 45 -42 -12 -12 -127 35 -316 128 -100 49 -185 87 -187 85 -14 -13 116
-106 275 -198 89 -52 85 -49 78 -55 -2 -3 -65 16 -139 42 -136 47 -270 85
-277 79 -7 -7 194 -115 291 -157 56 -24 97 -47 97 -55 0 -15 -15 -14 -135 6
-28 5 -95 11 -150 15 -98 6 -99 6 -65 -10 39 -18 146 -55 231 -79 64 -18 92
-42 68 -57 -8 -5 -50 -9 -94 -9 -78 0 -79 0 -60 -19 38 -36 172 -72 310 -84
28 -2 30 -5 30 -44 0 -30 7 -48 24 -67 21 -22 23 -29 13 -51 -10 -21 -9 -25 4
-25 11 0 14 -5 10 -16 -4 -11 1 -18 14 -21 17 -5 20 -11 15 -34 -6 -25 -2 -31
27 -49 24 -14 34 -29 38 -52 4 -28 11 -35 48 -48 36 -12 42 -19 42 -42 0 -30
23 -48 63 -48 19 0 26 -7 30 -29 5 -22 15 -33 42 -42 19 -7 35 -18 35 -24 0
-19 35 -45 58 -45 12 0 22 -6 22 -14 0 -22 29 -46 55 -46 16 0 28 -9 37 -27
16 -33 50 -41 83 -19 37 25 45 20 45 -28 0 -62 7 -76 41 -76 22 0 32 -6 39
-26 9 -22 14 -25 40 -19 27 6 32 4 41 -24 12 -35 10 -34 43 -21 21 8 27 6 37
-11 8 -16 17 -19 38 -14 20 4 30 2 34 -9 3 -8 16 -16 29 -18 18 -2 24 -10 26
-34 3 -28 -3 -35 -60 -72 -84 -54 -228 -125 -308 -153 -87 -29 -120 -47 -120
-63 0 -22 28 -39 55 -32 30 8 30 7 8 -40 -17 -34 -17 -37 0 -49 9 -7 17 -19
17 -28 0 -8 14 -20 30 -26 20 -7 30 -17 30 -31 0 -30 47 -70 82 -70 16 0 36
-6 44 -14 7 -8 23 -12 34 -9 11 3 27 0 35 -7 8 -7 38 -14 67 -16 29 -2 69 -6
88 -9 71 -11 144 3 165 31 29 39 105 228 133 330 l19 69 49 0 c43 0 49 -3 52
-23 3 -17 8 -21 23 -17 15 5 19 2 19 -15 0 -15 8 -22 29 -26 17 -4 31 -14 34
-25 3 -11 14 -19 26 -19 12 0 24 -7 27 -15 4 -8 17 -15 30 -15 13 0 28 -9 34
-20 6 -12 21 -20 35 -20 14 0 25 -4 25 -10 0 -5 15 -10 34 -10 25 0 35 -5 39
-20 4 -15 14 -20 39 -20 22 0 37 -6 46 -20 8 -13 23 -20 42 -20 20 0 30 -5 30
-15 0 -16 43 -31 60 -20 5 3 22 -3 36 -14 15 -12 40 -21 56 -21 21 0 31 -6 35
-20 6 -24 34 -34 73 -25 19 4 30 3 30 -4 0 -6 11 -18 25 -27 21 -14 30 -15 52
-5 22 10 27 9 40 -9 17 -24 50 -26 81 -5 19 14 24 14 47 -1 21 -14 31 -15 50
-6 14 7 25 17 25 23 0 7 16 9 50 4 41 -6 51 -4 56 9 10 26 23 18 34 -21 14
-55 62 -131 114 -185 66 -69 76 -65 59 24 -7 40 -11 78 -8 86 8 22 39 -2 96
-75 58 -75 99 -118 99 -106 1 4 8 -8 17 -27 8 -19 17 -30 20 -24 7 19 -35 133
-78 211 -65 120 -51 124 59 15 112 -109 163 -153 173 -146 15 9 -36 93 -106
177 -36 42 -65 81 -65 87 0 5 32 -15 71 -45 60 -47 181 -115 204 -115 13 0
-32 48 -128 134 -54 49 -96 90 -94 93 3 2 42 -16 88 -40 46 -25 100 -48 119
-52 19 -3 43 -9 54 -12 36 -10 5 16 -79 67 -102 62 -193 132 -178 137 7 3 27
-4 45 -13 67 -35 189 -56 202 -35 3 4 -19 13 -50 19 -76 16 -227 92 -212 108
4 3 23 1 45 -5 48 -14 93 -14 93 -1 0 6 -11 10 -23 10 -63 0 -255 92 -401 190
-110 75 -311 174 -404 198 -101 26 -414 147 -537 207 -49 24 -101 55 -114 69
l-24 25 26 41 c37 55 35 81 -9 103 -44 21 -76 22 -132 0 -42 -16 -47 -15 -125
7 -45 12 -107 36 -137 52 -110 57 -427 297 -555 419 -98 93 -290 232 -393 285
-157 79 -294 172 -428 291 -39 35 -74 63 -78 63 -17 0 38 -82 80 -119 26 -23
44 -44 41 -47 -7 -7 -188 110 -241 155 -42 37 -136 102 -136 96z"/>
</g>
</svg>
